<svg xmlns="http://www.w3.org/2000/svg" width="45" height="45" fill="#fff" viewBox="0 0 45 45"><path fill="#fff" d="M15.1814 18.5868C14.9368 18.3881 14.6338 18.2748 14.3188 18.2642H13.0267V26.002H14.3188C14.6344 25.9916 14.938 25.8783 15.1833 25.6794C15.469 25.4638 15.6127 25.1412 15.6127 24.7117V19.5545C15.6146 19.125 15.4671 18.8024 15.1814 18.5868V18.5868ZM36.2123 5.5314H9.53754C7.7441 5.5314 6.28982 6.982 6.28613 8.77544V35.465C6.28982 37.2584 7.7441 38.709 9.53754 38.709H36.2142C38.0076 38.709 39.4619 37.2584 39.4656 35.465V8.77544C39.4631 7.91422 39.1193 7.08911 38.5095 6.481C37.8996 5.87289 37.0736 5.5314 36.2123 5.5314V5.5314ZM17.7048 24.7265C17.7048 26.1181 16.8458 28.2304 14.1253 28.2249H10.6895V15.9731H14.1971C16.8219 15.9731 17.7029 18.0818 17.7048 19.4734V24.7265ZM25.1605 18.161H21.2161V21.0069H23.6288V23.1966H21.2161V26.0407H25.1642V28.2304H20.5599C20.1627 28.2403 19.7779 28.0921 19.49 27.8184C19.2021 27.5446 19.0346 27.1678 19.0245 26.7706V17.5067C19.0151 17.1098 19.1635 16.7255 19.4372 16.438C19.7109 16.1505 20.0875 15.9833 20.4843 15.9731H25.1642L25.1605 18.161V18.161ZM32.8374 26.6987C31.8587 28.9751 30.1077 28.5235 29.3243 26.6987L26.471 15.975H28.8838L31.0827 24.3966L33.2724 15.975H35.687L32.8374 26.6987V26.6987Z"/></svg>