<svg width="47" height="46" viewBox="0 0 47 46" fill="none" xmlns="http://www.w3.org/2000/svg">
<path d="M23.6562 1.09524C11.5582 1.09524 1.75146 10.902 1.75146 23C1.75146 35.098 11.5582 44.9048 23.6562 44.9048C35.7542 44.9048 45.561 35.098 45.561 23C45.561 10.902 35.7542 1.09524 23.6562 1.09524ZM23.6562 4.26924C28.4282 4.26924 32.7839 6.05448 36.0916 8.9919C33.6612 12.1977 29.9692 14.3323 26.2695 15.7769C24.1751 11.9626 21.8279 8.29262 19.2435 4.79167C20.6889 4.44327 22.1705 4.2679 23.6573 4.26924H23.6562ZM15.6873 6.04352C18.1297 9.69724 20.4954 13.0848 22.6563 16.9192C17.191 18.3354 11.015 19.1853 5.30989 19.1995C6.51246 13.3641 10.4323 8.51876 15.6873 6.04462V6.04352ZM38.1692 11.1583C40.8758 14.4659 42.3648 18.6024 42.387 22.8762C38.0542 22.022 33.7456 21.7985 29.358 22.241C28.8652 21.011 28.2672 19.8424 27.6944 18.5829C31.4762 17.0572 35.5198 14.4462 38.1692 11.1572V11.1583ZM24.1776 19.8172C24.6463 20.8139 25.1896 21.8719 25.6999 22.9529C19.5995 25.6428 13.1102 29.2374 9.74232 35.5394C6.50919 31.9615 4.78615 27.2713 4.93423 22.4513C11.4673 22.4206 17.8799 21.6036 24.1776 19.8172V19.8172ZM34.0763 24.9243C36.8022 24.9249 39.5167 25.2746 42.1537 25.9648C41.7471 28.5016 40.8229 30.9277 39.4386 33.0921C38.0543 35.2564 36.2395 37.1128 34.107 38.5458C33.1016 33.9732 32.1432 29.5977 30.4489 25.1861C31.6497 25.0111 32.8617 24.9233 34.0752 24.9232L34.0763 24.9243ZM42.2512 25.2639C42.238 25.3712 42.226 25.4763 42.2107 25.5815C42.226 25.4752 42.2391 25.3701 42.2512 25.2639ZM26.9836 26.0415C28.7097 30.5024 30.0645 35.4419 30.9735 40.2489C28.6595 41.2307 26.171 41.7351 23.6573 41.7319C19.4931 41.7378 15.4466 40.3498 12.1628 37.789C15.5547 32.2865 20.8086 28.1224 26.9825 26.0426L26.9836 26.0415Z" fill="white"/>
</svg>
