<svg width="41" height="40" viewBox="0 0 41 40" fill="none" xmlns="http://www.w3.org/2000/svg">
<path d="M20.5931 0.284479C9.3843 0.279946 0.305786 9.35393 0.305786 20.5536C0.305786 29.4101 5.98496 36.9385 13.8941 39.7033C14.9592 39.9707 14.7961 39.2138 14.7961 38.6971V35.1844C8.64551 35.9051 8.39623 31.8349 7.98377 31.1551C7.1498 29.7319 5.17818 29.3693 5.7674 28.6894C7.16793 27.9687 8.59566 28.8707 10.25 31.3137C11.4466 33.0859 13.7808 32.7868 14.9638 32.4921C15.2221 31.427 15.7751 30.4752 16.5365 29.7364C10.1639 28.5942 7.50786 24.7054 7.50786 20.0823C7.50786 17.8387 8.24666 15.7764 9.69704 14.113C8.77242 11.3709 9.78316 9.02306 9.91913 8.67406C12.5525 8.43837 15.2901 10.5596 15.5031 10.7273C16.9988 10.3239 18.7076 10.1109 20.6203 10.1109C22.542 10.1109 24.2553 10.3329 25.7646 10.7409C26.2768 10.3511 28.815 8.52902 31.2625 8.75111C31.3939 9.10011 32.382 11.3935 31.5118 14.0994C32.9803 15.7674 33.7281 17.8478 33.7281 20.0959C33.7281 24.728 31.054 28.6214 24.6632 29.7455C25.2106 30.2838 25.6452 30.9258 25.9417 31.634C26.2382 32.3421 26.3907 33.1023 26.3901 33.87V38.969C26.4264 39.3769 26.3901 39.7803 27.07 39.7803C35.097 37.0745 40.8758 29.4917 40.8758 20.5582C40.8758 9.35393 31.7928 0.284479 20.5931 0.284479V0.284479Z" fill="white"/>
</svg>
