<svg width="47" height="46" viewBox="0 0 47 46" fill="#fff" xmlns="http://www.w3.org/2000/svg">
<path d="M38.9896 34.5H35.1562V17.7292L23.6562 24.9167L12.1562 17.7292V34.5H8.3229V11.5H10.6229L23.6562 19.6458L36.6896 11.5H38.9896V34.5ZM38.9896 7.66667H8.3229C6.1954 7.66667 4.48956 9.3725 4.48956 11.5V34.5C4.48956 35.5167 4.89343 36.4917 5.61232 37.2106C6.33121 37.9295 7.30623 38.3333 8.3229 38.3333H38.9896C40.0062 38.3333 40.9812 37.9295 41.7001 37.2106C42.419 36.4917 42.8229 35.5167 42.8229 34.5V11.5C42.8229 10.4833 42.419 9.50831 41.7001 8.78942C40.9812 8.07054 40.0062 7.66667 38.9896 7.66667V7.66667Z" fill="white"/>
</svg>
