<svg xmlns="http://www.w3.org/2000/svg" width="45" height="44" fill="#fff" viewBox="0 0 45 44"><path fill="#fff" d="M36.0036 11.891L38.6083 9.38824V8.8401H29.5873L23.1583 24.919L15.8455 8.8401H6.38678V9.38824L9.42919 13.068C9.72664 13.34 9.87961 13.7394 9.84136 14.1388V28.5988C9.93485 29.1214 9.76913 29.6526 9.4037 30.0308L5.97461 34.2077V34.7474H15.6882V34.1992L12.2634 30.035C12.0799 29.8487 11.9419 29.6226 11.8601 29.3742C11.7783 29.1258 11.7549 28.8619 11.7917 28.603V16.0935L20.3198 34.7559H21.3099L28.644 16.0935V30.9613C28.644 31.3523 28.644 31.433 28.389 31.6922L25.7503 34.2544V34.8026H38.5488V34.2544L36.0036 31.7517C35.7826 31.5817 35.6679 31.297 35.7146 31.0208V12.6219C35.6926 12.4853 35.7079 12.3454 35.7587 12.2167C35.8096 12.0881 35.8941 11.9756 36.0036 11.891V11.891Z"/></svg>