<svg width="600" height="600" viewBox="0 0 600 600" fill="none" xmlns="http://www.w3.org/2000/svg">
<circle cx="300" cy="300" r="300" fill="#222222"/>
<path d="M250.729 179.256V444.466C250.729 490.169 230.002 513.021 188.547 513.021C179.611 513.021 171.335 511.702 163.718 509.065V476.546C168.405 477.718 174.558 478.304 182.175 478.304C191.257 478.304 198.142 475.813 202.829 470.833C207.663 465.999 210.08 457.503 210.08 445.345V179.256H250.729ZM205.905 116.194C205.905 109.749 207.883 104.256 211.838 99.7148C215.939 95.0273 221.872 92.6836 229.636 92.6836C237.546 92.6836 243.552 94.9541 247.653 99.4951C251.755 104.036 253.806 109.603 253.806 116.194C253.806 122.786 251.755 128.279 247.653 132.674C243.552 137.068 237.546 139.266 229.636 139.266C221.726 139.266 215.793 137.068 211.838 132.674C207.883 128.279 205.905 122.786 205.905 116.194ZM454.855 353.938C454.855 342.952 450.681 334.456 442.331 328.45C434.128 322.298 419.699 317.024 399.045 312.63C378.537 308.235 362.204 302.962 350.046 296.81C338.034 290.657 329.099 283.333 323.239 274.837C317.526 266.341 314.67 256.233 314.67 244.515C314.67 225.032 322.873 208.553 339.279 195.076C355.832 181.6 376.926 174.861 402.561 174.861C429.514 174.861 451.34 181.819 468.039 195.735C484.885 209.651 493.308 227.449 493.308 249.129H452.438C452.438 237.996 447.678 228.401 438.156 220.345C428.781 212.288 416.916 208.26 402.561 208.26C387.766 208.26 376.193 211.482 367.844 217.928C359.494 224.373 355.319 232.796 355.319 243.196C355.319 253.011 359.201 260.408 366.965 265.389C374.729 270.369 388.718 275.13 408.933 279.671C429.294 284.212 445.773 289.632 458.371 295.931C470.969 302.229 480.271 309.847 486.276 318.782C492.429 327.571 495.505 338.338 495.505 351.082C495.505 372.322 487.009 389.388 470.017 402.278C453.024 415.022 430.979 421.395 403.879 421.395C384.836 421.395 367.99 418.025 353.342 411.287C338.693 404.549 327.194 395.174 318.845 383.162C310.642 371.004 306.54 357.894 306.54 343.831H347.189C347.922 357.454 353.342 368.294 363.449 376.351C373.703 384.261 387.18 388.216 403.879 388.216C419.26 388.216 431.564 385.14 440.793 378.987C450.168 372.688 454.855 364.339 454.855 353.938Z" fill="white"/>
</svg>
