<?xml version="1.0" standalone="no"?>
<!DOCTYPE svg PUBLIC "-//W3C//DTD SVG 20010904//EN"
 "http://www.w3.org/TR/2001/REC-SVG-20010904/DTD/svg10.dtd">
<svg version="1.0" xmlns="http://www.w3.org/2000/svg"
 width="790.000000pt" height="790.000000pt" viewBox="0 0 790.000000 790.000000"
 preserveAspectRatio="xMidYMid meet">
<metadata>
Created by potrace 1.11, written by Peter Selinger 2001-2013
</metadata>
<g transform="translate(0.000000,790.000000) scale(0.100000,-0.100000)"
fill="#000000" stroke="none">
<path d="M3958 7545 c-3 -3 -76 -7 -164 -10 -87 -2 -172 -7 -189 -9 -16 -2
-57 -7 -90 -10 -33 -4 -73 -8 -90 -11 -16 -3 -46 -7 -65 -10 -19 -2 -46 -7
-60 -10 -14 -3 -41 -8 -60 -11 -42 -8 -53 -10 -105 -24 -22 -5 -56 -13 -75
-16 -19 -3 -38 -8 -42 -11 -5 -2 -16 -6 -25 -8 -10 -2 -43 -11 -73 -20 -75
-22 -73 -21 -90 -28 -8 -3 -56 -20 -107 -37 -50 -16 -104 -37 -120 -45 -15 -8
-32 -15 -36 -15 -5 0 -32 -11 -60 -24 -57 -26 -84 -36 -93 -35 -4 0 -10 -3
-13 -8 -3 -5 -55 -33 -114 -63 -60 -30 -116 -59 -125 -65 -10 -5 -40 -23 -67
-39 -76 -44 -213 -135 -282 -188 -34 -27 -67 -48 -72 -48 -5 0 -11 -4 -13 -8
-1 -5 -41 -39 -86 -77 -145 -117 -370 -340 -450 -445 -15 -19 -38 -47 -52 -61
-14 -15 -34 -39 -45 -55 -11 -15 -26 -33 -33 -40 -6 -7 -12 -16 -12 -21 0 -4
-10 -19 -22 -33 -36 -40 -208 -304 -208 -319 0 -5 -7 -14 -15 -21 -8 -7 -12
-16 -9 -21 3 -5 2 -9 -3 -9 -8 0 -36 -54 -33 -66 1 -4 -3 -10 -8 -13 -13 -8
-82 -149 -82 -167 0 -8 -4 -14 -9 -14 -5 0 -12 -11 -15 -25 -4 -14 -17 -49
-30 -78 -51 -112 -151 -415 -171 -518 -2 -12 -6 -28 -9 -37 -3 -9 -8 -32 -11
-51 -3 -19 -7 -37 -9 -40 -2 -3 -7 -22 -10 -41 -3 -19 -8 -46 -10 -60 -41
-239 -51 -355 -51 -635 1 -212 5 -302 20 -410 2 -16 7 -55 10 -85 4 -30 9 -64
12 -75 2 -11 6 -33 8 -50 2 -16 8 -52 15 -80 7 -27 14 -61 15 -75 2 -14 11
-52 20 -85 10 -33 19 -68 21 -78 1 -10 8 -32 14 -50 5 -18 26 -81 46 -142 19
-60 49 -141 65 -180 17 -38 31 -72 31 -75 7 -35 132 -289 203 -410 91 -155
236 -369 289 -426 6 -7 25 -29 41 -50 131 -165 326 -359 515 -512 79 -64 77
-62 120 -92 19 -14 37 -28 40 -31 11 -13 192 -130 295 -191 108 -64 336 -178
385 -193 14 -4 30 -11 35 -15 6 -4 37 -17 70 -29 33 -13 69 -27 80 -31 17 -7
87 -31 105 -35 3 -1 13 -5 23 -8 44 -17 53 -20 72 -24 11 -2 37 -10 58 -18 20
-8 37 -13 37 -10 0 2 11 0 25 -5 14 -5 37 -12 50 -15 38 -8 68 -14 95 -21 49
-12 135 -27 158 -28 12 -1 22 -3 22 -6 0 -3 8 -6 18 -6 18 -1 115 -13 167 -20
171 -26 709 -24 840 2 17 3 44 7 60 9 17 1 30 4 30 5 0 1 20 4 45 6 46 5 237
45 333 70 12 3 28 6 35 6 6 1 12 4 12 8 0 4 8 7 18 6 39 -2 474 156 509 186 7
6 13 8 13 5 0 -8 285 138 300 153 3 3 18 12 35 20 46 23 256 163 338 225 152
116 220 177 387 344 166 167 370 415 435 529 6 9 24 37 40 62 98 148 285 507
272 523 -1 2 5 14 14 27 20 32 111 285 135 375 11 42 11 45 14 48 1 1 3 9 5
17 2 8 6 25 9 38 3 12 8 31 11 43 2 11 6 28 9 37 5 16 13 53 21 97 2 11 6 31
10 45 4 22 17 98 30 180 8 56 16 126 20 184 5 65 17 264 17 281 0 42 -14 328
-17 360 -8 81 -15 141 -20 172 -3 18 -8 50 -11 70 -3 21 -7 52 -10 68 -4 24
-33 151 -69 305 -2 8 -4 15 -5 15 -1 0 -3 10 -6 22 -2 12 -10 41 -19 65 -8 24
-15 51 -15 61 0 9 -4 17 -10 17 -5 0 -9 3 -8 8 5 25 -89 265 -168 430 -90 184
-214 395 -300 507 -14 19 -22 35 -18 35 5 0 4 4 -2 8 -7 4 -42 45 -78 92 -112
143 -249 296 -355 394 -24 23 -58 55 -76 71 -46 43 -134 118 -159 134 -12 8
-25 21 -29 28 -4 7 -14 13 -22 13 -7 0 -15 4 -17 8 -1 4 -25 24 -53 45 -27 20
-59 43 -70 52 -39 29 -96 65 -105 65 -4 0 -10 4 -12 8 -10 25 -403 234 -549
292 -30 12 -65 27 -79 33 -14 5 -29 11 -35 13 -5 1 -35 12 -65 24 -30 12 -62
23 -70 25 -8 2 -44 13 -80 25 -85 28 -295 80 -385 95 -53 10 -61 11 -72 15 -5
1 -11 2 -15 1 -4 0 -32 4 -63 10 -30 5 -72 12 -93 14 -20 2 -59 6 -87 9 -27 3
-106 8 -174 11 -69 3 -128 8 -131 10 -4 3 -9 2 -12 0z"/>
</g>
</svg>
